<?xml version="1.0" standalone="no"?><svg xmlns="http://www.w3.org/2000/svg" viewBox="0 0 1440 320"><path fill="#947cfb" fill-opacity="1" d="M0,0L34.3,16C68.6,32,137,64,206,74.7C274.3,85,343,75,411,90.7C480,107,549,149,617,160C685.7,171,754,149,823,144C891.4,139,960,149,1029,144C1097.1,139,1166,117,1234,96C1302.9,75,1371,53,1406,42.7L1440,32L1440,0L1405.7,0C1371.4,0,1303,0,1234,0C1165.7,0,1097,0,1029,0C960,0,891,0,823,0C754.3,0,686,0,617,0C548.6,0,480,0,411,0C342.9,0,274,0,206,0C137.1,0,69,0,34,0L0,0Z"></path></svg>